{"title":"Men in Black II (2002) 1080p BluRay {Dual Audio} {6Ch.} [Hindi D","uid":9526606,"size":2332806848,"categoryP":"video","categoryS":"hd___movies","magnet":"?xt=urn:btih:0d2fb37b890ac7e4c7cbf8201f2010409f6b7b78&amp;dn=Men+in+Black+II+%282002%29+1080p+BluRay+%7BDual+Audio%7D+%7B6Ch.%7D+%5BHindi+D&amp;tr=udp%3A%2F%2Ftracker.openbittorrent.com%3A80&amp;tr=udp%3A%2F%2Fopen.demonii.com%3A1337&amp;tr=udp%3A%2F%2Ftracker.coppersurfer.tk%3A6969&amp;tr=udp%3A%2F%2Fexodus.desync.com%3A6969","seeders":0,"leechers":1,"uploader":"SaNRiM","files":-1,"time":1390761007,"description":"Storyline\n\nKay and Jay reunite to provide our best, last and only line of defense against a sinister seductress who levels the toughest challenge yet to the MIBs untarnished mission statement: protecting the earth from the scum of the universe. It's been four years since the alien-seeking agents averted an intergalactic disaster of epic proportions. And now it's a race against the clock as Jay must convince Kay-who not only has absolutely no memory of his time spent with the Men In Black, but is also the only living person left with the expertise to save the galaxy-to reunite with the MIB before the earth submits to ultimate destruction.\n\n\n\nTorrent Info\n\nGeneral\n\nUnique ID : 173694987473254221140547928642667392731 (0x82AC7010CEDCE534981E65A26D43AEDB)\nComplete name : Men in Black II (2002) 1080p BluRay {Dual Audio} {6Ch.} [Hindi DD 5.1 Original-English DD 5.1] ~SaNRiM~.mkv\nFormat : Matroska\nFormat version : Version 4 / Version 2\nFile size : 2.16 GiB\nDuration : 1h 28mn\nOverall bit rate : 3 510 Kbps\nMovie name : Enjoy the best ~SaNRiM~ Find me on facebook\nEncoded date : UTC 2014-01-26 12:45:17\nWriting library : libebml v1.3.0 + libmatroska v1.4.1\n\n\nVideo\n\nID : 1\nFormat : AVC\nFormat/Info : Advanced Video Codec\nFormat profile : &lt;a class=&quot;__cf_email__&quot; href=&quot;/cdn-cgi/l/email-protection&quot; data-cfemail=&quot;c880a1afa08884fce6f8&quot;&gt;[email&amp;#160;protected]&lt;/a&gt;&lt;script cf-hash='f9e31' type=&quot;text/javascript&quot;&gt;\n/* &lt;![CDATA[ */!function(){try{var t=&quot;currentScript&quot;in document?document.currentScript:function(){for(var t=document.getElementsByTagName(&quot;script&quot;),e=t.length;e--;)if(t[e].getAttribute(&quot;cf-hash&quot;))return t[e]}();if(t&amp;&amp;t.previousSibling){var e,r,n,i,c=t.previousSibling,a=c.getAttribute(&quot;data-cfemail&quot;);if(a){for(e=&quot;&quot;,r=parseInt(a.substr(0,2),16),n=2;a.length-n;n+=2)i=parseInt(a.substr(n,2),16)^r,e+=String.fromCharCode(i);e=document.createTextNode(e),c.parentNode.replaceChild(e,c)}}}catch(u){}}();/* ]]&gt; */&lt;/script&gt;\nFormat settings, CABAC : Yes\nFormat settings, ReFrames : 4 frames\nCodec ID : V_MPEG4/ISO/AVC\nDuration : 1h 28mn\nBit rate : 2 231 Kbps\nWidth : 1 920 pixels\nHeight : 1 040 pixels\nDisplay aspect ratio : 1.85:1\nFrame rate mode : Constant\nFrame rate : 23.976 fps\nColor space : YUV\nChroma subsampling : 4:2:0\nBit depth : 8 bits\nScan type : Progressive\nBits/(Pixel*Frame) : 0.047\nStream size : 1.33 GiB (62%)\nTitle : ~SaNRiM~\nWriting library : x264 core 128 r2216 198a7ea\nLanguage : English\nDefault : Yes\nForced : No\n\n\nAudio #1\n\nID : 2\nFormat : AC-3\nFormat/Info : Audio Coding 3\nMode extension : CM (complete main)\nFormat settings, Endianness : Big\nCodec ID : A_AC3\nDuration : 1h 28mn\nBit rate mode : Constant\nBit rate : 640 Kbps\nChannel(s) : 6 channels\nChannel positions : Front: L C R, Side: L R, LFE\nSampling rate : 48.0 KHz\nBit depth : 16 bits\nCompression mode : Lossy\nStream size : 403 MiB (18%)\nTitle : ~SaNRiM~\nLanguage : Hindi\nDefault : Yes\nForced : No\n\n\nAudio #2\n\nID : 3\nFormat : AC-3\nFormat/Info : Audio Coding 3\nMode extension : CM (complete main)\nFormat settings, Endianness : Big\nCodec ID : A_AC3\nDuration : 1h 28mn\nBit rate mode : Constant\nBit rate : 640 Kbps\nChannel(s) : 6 channels\nChannel positions : Front: L C R, Side: L R, LFE\nSampling rate : 48.0 KHz\nBit depth : 16 bits\nCompression mode : Lossy\nStream size : 403 MiB (18%)\nTitle : ~SaNRiM~\nLanguage : English\nDefault : No\nForced : No\n\n\n\nScreens\n &lt;a href=&quot;\nhttp://someimage.com/8e95WfN&quot; rel=&quot;nofollow&quot; target=&quot;_NEW&quot;&gt;\nhttp://someimage.com/8e95WfN&lt;/a&gt; &lt;a href=&quot;\nhttp://someimage.com/CR7XwmU&quot; rel=&quot;nofollow&quot; target=&quot;_NEW&quot;&gt;\nhttp://someimage.com/CR7XwmU&lt;/a&gt; &lt;a href=&quot;\nhttp://someimage.com/Usr4xUo&quot; rel=&quot;nofollow&quot; target=&quot;_NEW&quot;&gt;\nhttp://someimage.com/Usr4xUo&lt;/a&gt; &lt;a href=&quot;\nhttp://someimage.com/wmRnmJy&quot; rel=&quot;nofollow&quot; target=&quot;_NEW&quot;&gt;\nhttp://someimage.com/wmRnmJy&lt;/a&gt; &lt;a href=&quot;\nhttp://someimage.com/GRREWQA&quot; rel=&quot;nofollow&quot; target=&quot;_NEW&quot;&gt;\nhttp://someimage.com/GRREWQA&lt;/a&gt; &lt;a href=&quot;\nhttp://someimage.com/JWdbEbZ&quot; rel=&quot;nofollow&quot; target=&quot;_NEW&quot;&gt;\nhttp://someimage.com/JWdbEbZ&lt;/a&gt; &lt;a href=&quot;\nhttp://someimage.com/0oJKG1F&quot; rel=&quot;nofollow&quot; target=&quot;_NEW&quot;&gt;\nhttp://someimage.com/0oJKG1F&lt;/a&gt; &lt;a href=&quot;\nhttp://someimage.com/4MUqYBE&quot; rel=&quot;nofollow&quot; target=&quot;_NEW&quot;&gt;\nhttp://someimage.com/4MUqYBE&lt;/a&gt; &lt;a href=&quot;\nhttp://someimage.com/bb2HTKb&quot; rel=&quot;nofollow&quot; target=&quot;_NEW&quot;&gt;\nhttp://someimage.com/bb2HTKb&lt;/a&gt; &lt;a href=&quot;\nhttp://someimage.com/FrBeeFg&quot; rel=&quot;nofollow&quot; target=&quot;_NEW&quot;&gt;\nhttp://someimage.com/FrBeeFg&lt;/a&gt; &lt;a href=&quot;\nhttp://someimage.com/IH5zVFa&quot; rel=&quot;nofollow&quot; target=&quot;_NEW&quot;&gt;\nhttp://someimage.com/IH5zVFa&lt;/a&gt; &lt;a href=&quot;\nhttp://someimage.com/swGm8qD&quot; rel=&quot;nofollow&quot; target=&quot;_NEW&quot;&gt;\nhttp://someimage.com/swGm8qD&lt;/a&gt; &lt;a href=&quot;\nhttp://someimage.com/XS7YU0v&quot; rel=&quot;nofollow&quot; target=&quot;_NEW&quot;&gt;\nhttp://someimage.com/XS7YU0v&lt;/a&gt; &lt;a href=&quot;\nhttp://someimage.com/DAx9RZe&quot; rel=&quot;nofollow&quot; target=&quot;_NEW&quot;&gt;\nhttp://someimage.com/DAx9RZe&lt;/a&gt; &lt;a href=&quot;\nhttp://someimage.com/Vvku2gU&quot; rel=&quot;nofollow&quot; target=&quot;_NEW&quot;&gt;\nhttp://someimage.com/Vvku2gU&lt;/a&gt; &lt;a href=&quot;\nhttp://someimage.com/OLU77qj&quot; rel=&quot;nofollow&quot; target=&quot;_NEW&quot;&gt;\nhttp://someimage.com/OLU77qj&lt;/a&gt; &lt;a href=&quot;\nhttp://someimage.com/6HNUqKI&quot; rel=&quot;nofollow&quot; target=&quot;_NEW&quot;&gt;\nhttp://someimage.com/6HNUqKI&lt;/a&gt; &lt;a href=&quot;\nhttp://someimage.com/aB4D1sC&quot; rel=&quot;nofollow&quot; target=&quot;_NEW&quot;&gt;\nhttp://someimage.com/aB4D1sC&lt;/a&gt; &lt;a href=&quot;\nhttp://someimage.com/JhGvDRQ&quot; rel=&quot;nofollow&quot; target=&quot;_NEW&quot;&gt;\nhttp://someimage.com/JhGvDRQ&lt;/a&gt; &lt;a href=&quot;\nhttp://someimage.com/vXAazk7&quot; rel=&quot;nofollow&quot; target=&quot;_NEW&quot;&gt;\nhttp://someimage.com/vXAazk7&lt;/a&gt; &lt;a href=&quot;\nhttp://someimage.com/xBht9Ud&quot; rel=&quot;nofollow&quot; target=&quot;_NEW&quot;&gt;\nhttp://someimage.com/xBht9Ud&lt;/a&gt; &lt;a href=&quot;\nhttp://someimage.com/pvMpWHS&quot; rel=&quot;nofollow&quot; target=&quot;_NEW&quot;&gt;\nhttp://someimage.com/pvMpWHS&lt;/a&gt; &lt;a href=&quot;\nhttp://someimage.com/OZln7SJ&quot; rel=&quot;nofollow&quot; target=&quot;_NEW&quot;&gt;\nhttp://someimage.com/OZln7SJ&lt;/a&gt; &lt;a href=&quot;\nhttp://someimage.com/AzpWnPW&quot; rel=&quot;nofollow&quot; target=&quot;_NEW&quot;&gt;\nhttp://someimage.com/AzpWnPW&lt;/a&gt;\n\n\n\n                  If you like my work please comment\n                          Any request? Just PM me\n                       Please seed long after download\n                         Thank you &amp; enjoy the best\n                                 ~SaNRiM~\n","torrent":{"xt":"urn:btih:0d2fb37b890ac7e4c7cbf8201f2010409f6b7b78","amp;dn":"Men+in+Black+II+%282002%29+1080p+BluRay+%7BDual+Audio%7D+%7B6Ch.%7D+%5BHindi+D","amp;tr":["udp%3A%2F%2Ftracker.openbittorrent.com%3A80","udp%3A%2F%2Fopen.demonii.com%3A1337","udp%3A%2F%2Ftracker.coppersurfer.tk%3A6969","udp%3A%2F%2Fexodus.desync.com%3A6969"],"infoHash":"0d2fb37b890ac7e4c7cbf8201f2010409f6b7b78","infoHashBuffer":{"type":"Buffer","data":[13,47,179,123,137,10,199,228,199,203,248,32,31,32,16,64,159,107,123,120]},"announce":[],"urlList":[]}}